<?xml version="1.0" encoding="utf-8"?>
<svg width="512px" height="73px" viewBox="0 0 512 73" version="1.1" xmlns:xlink="http://www.w3.org/1999/xlink" xmlns="http://www.w3.org/2000/svg">
  <defs>
    <path d="M512 0L512 0L512 73L0 73L0 0L512 0Z" id="path_1" />
    <clipPath id="clip_1">
      <use xlink:href="#path_1" clip-rule="evenodd" fill-rule="evenodd" />
    </clipPath>
  </defs>
  <g id="thunderstore2">
    <path d="M512 0L512 0L512 73L0 73L0 0L512 0Z" id="thunderstore2" fill="none" stroke="none" />
    <path d="M506 0C509.314 0 512 2.68584 512 6L512 67C512 70.3142 509.314 73 506 73L227 73L227 0L506 0Z" id="Rectangle" fill="#4E98E0" stroke="none" clip-path="url(#clip_1)" />
    <g id="Thunderstore" transform="translate(312.19995 14.5)" clip-path="url(#clip_1)">
      <g transform="translate(0, 6.278409)" id="Thunderstore" fill="#FFFFFF">
        <path d="M0.8125 9.99121L0.8125 6.27783L16.7959 6.27783L16.7959 9.99121L11.064 9.99121L11.064 25.1875L6.55713 25.1875L6.55713 9.99121L0.8125 9.99121ZM23.555 17.1006L23.555 25.1875L19.0355 25.1875L19.0355 6.27783L23.4027 6.27783L23.4027 13.6094L23.5613 13.6094Q24.0438 12.2954 25.1356 11.5591Q26.2337 10.8228 27.8206 10.8228Q30.055 10.8228 31.407 12.2827Q32.7591 13.7363 32.7464 16.1484L32.7464 25.1875L28.2332 25.1875L28.2332 17.0371Q28.2459 15.8501 27.6429 15.1899Q27.0462 14.5234 25.9544 14.5234Q24.8817 14.5234 24.2215 15.209Q23.5613 15.8882 23.555 17.1006ZM44.7065 19.0684L44.7065 11.0068L49.2134 11.0068L49.2134 25.1875L44.9097 25.1875L44.9097 22.5469L44.7637 22.5469Q44.2876 23.8481 43.1577 24.6099Q42.0278 25.3716 40.4282 25.3716Q38.9746 25.3716 37.8765 24.7114Q36.7847 24.0449 36.1753 22.8452Q35.5659 21.6392 35.5532 20.0459L35.5532 11.0068L40.0728 11.0068L40.0728 19.1572Q40.0791 20.3125 40.6758 20.979Q41.2788 21.6392 42.3135 21.6392Q43.3228 21.6392 44.0146 20.9727Q44.7065 20.3062 44.7065 19.0684ZM56.5997 17.1006L56.5997 25.1875L52.0802 25.1875L52.0802 11.0068L56.3776 11.0068L56.3776 13.6094L56.5363 13.6094Q57.006 12.3145 58.1422 11.5718Q59.2785 10.8228 60.8463 10.8228Q62.338 10.8228 63.4425 11.4893Q64.547 12.1494 65.1627 13.3491Q65.7785 14.5488 65.7658 16.1484L65.7658 25.1875L61.2526 25.1875L61.2526 17.0371Q61.2589 15.8501 60.6559 15.1899Q60.0529 14.5234 58.9801 14.5234Q57.9074 14.5234 57.2535 15.209Q56.6061 15.8882 56.5997 17.1006ZM73.75 25.3906Q72.1948 25.3906 70.9062 24.5781Q69.6176 23.7593 68.8496 22.1406Q68.0815 20.522 68.0815 18.1035Q68.0815 15.6025 68.875 13.9966Q69.6748 12.3843 70.9633 11.6035Q72.2583 10.8228 73.7373 10.8228Q75.413 10.8228 76.3779 11.6416Q77.3427 12.4541 77.7426 13.4316L77.8315 13.4316L77.8315 6.27783L82.351 6.27783L82.351 25.1875L77.8823 25.1875L77.8823 22.8896L77.7426 22.8896Q77.3173 23.8672 76.3398 24.6289Q75.3623 25.3906 73.75 25.3906ZM75.3242 21.874Q76.562 21.874 77.2475 20.852Q77.9331 19.8237 77.9331 18.0972Q77.9331 16.3579 77.2475 15.355Q76.562 14.3457 75.3242 14.3457Q74.0673 14.3457 73.3945 15.3677Q72.7216 16.3896 72.7216 18.0972Q72.7216 19.811 73.3945 20.8457Q74.0673 21.874 75.3242 21.874ZM91.8414 25.4541Q88.4961 25.4541 86.5791 23.5054Q84.6685 21.5566 84.6685 18.1543Q84.6685 15.9517 85.5318 14.3076Q86.4014 12.6572 87.982 11.7432Q89.5625 10.8228 91.7017 10.8228Q93.7139 10.8228 95.2627 11.6606Q96.8179 12.4922 97.6939 14.1108Q98.5699 15.7231 98.5699 18.0591L98.5699 19.189L89.1182 19.189L89.1182 19.3032Q89.1182 20.6108 89.8672 21.4043Q90.6226 22.1978 91.9239 22.1978Q92.8125 22.1978 93.4664 21.8232Q94.1202 21.4487 94.3804 20.7441L98.5254 20.8647Q98.1382 22.9531 96.3799 24.2036Q94.628 25.4541 91.8414 25.4541ZM89.1182 16.561L94.3677 16.561Q94.3614 15.4756 93.6377 14.7773Q92.9141 14.0791 91.7969 14.0791Q90.667 14.0791 89.9117 14.79Q89.1626 15.501 89.1182 16.561ZM100.886 25.1875L100.886 11.0068L105.272 11.0068L105.272 13.5903L105.424 13.5903Q105.811 12.1875 106.687 11.502Q107.563 10.8101 108.725 10.8101Q109.372 10.8101 109.994 10.9751L109.994 14.9043Q109.671 14.79 109.144 14.7266Q108.623 14.6631 108.217 14.6631Q107.011 14.6631 106.205 15.4438Q105.405 16.2246 105.405 17.4878L105.405 25.1875L100.886 25.1875ZM124.22 15.3359L120.075 15.4438Q119.98 14.771 119.396 14.3457Q118.818 13.9141 117.923 13.9141Q117.136 13.9141 116.584 14.2251Q116.038 14.5298 116.051 15.0757Q116.038 15.4819 116.381 15.793Q116.73 16.104 117.625 16.2881L120.361 16.8022Q124.544 17.6084 124.569 20.6426Q124.563 22.1025 123.706 23.188Q122.855 24.2671 121.376 24.8638Q119.897 25.4541 117.999 25.4541Q114.959 25.4541 113.201 24.2036Q111.449 22.9531 111.214 20.8457L115.67 20.7378Q115.816 21.5122 116.432 21.9185Q117.054 22.3247 118.019 22.3247Q118.882 22.3247 119.428 22.001Q119.974 21.6772 119.98 21.144Q119.955 20.249 118.253 19.9126L115.784 19.4429Q111.544 18.6621 111.569 15.3359Q111.563 13.2031 113.258 12.0161Q114.959 10.8228 117.841 10.8228Q120.723 10.8228 122.379 12.0288Q124.042 13.2285 124.22 15.3359ZM134.795 11.0068L134.795 14.3267L132.237 14.3267L132.237 20.7251Q132.237 21.3535 132.535 21.6074Q132.833 21.8613 133.379 21.8613Q133.64 21.8613 133.925 21.8105Q134.217 21.7598 134.37 21.728L135.049 24.9844Q134.725 25.0796 134.141 25.2129Q133.563 25.3462 132.745 25.3906Q130.351 25.4985 129.025 24.4385Q127.698 23.3784 127.717 21.2266L127.717 14.3267L125.845 14.3267L125.845 11.0068L127.717 11.0068L127.717 7.61084L132.237 7.61084L132.237 11.0068L134.795 11.0068ZM143.57 25.4541Q141.348 25.4541 139.743 24.54Q138.137 23.6196 137.273 21.9692Q136.41 20.3188 136.41 18.1416Q136.41 15.9517 137.273 14.3076Q138.137 12.6572 139.743 11.7432Q141.348 10.8228 143.57 10.8228Q145.805 10.8228 147.404 11.7432Q149.01 12.6572 149.873 14.3076Q150.737 15.9517 150.737 18.1416Q150.737 20.3188 149.873 21.9692Q149.01 23.6196 147.404 24.54Q145.805 25.4541 143.57 25.4541ZM143.602 22.0454Q144.808 22.0454 145.474 20.96Q146.141 19.8682 146.141 18.1162Q146.141 16.3516 145.474 15.2598Q144.808 14.1616 143.602 14.1616Q142.345 14.1616 141.672 15.2598Q141.006 16.3516 141.006 18.1162Q141.006 19.8682 141.672 20.96Q142.345 22.0454 143.602 22.0454ZM153.052 25.1875L153.052 11.0068L157.438 11.0068L157.438 13.5903L157.59 13.5903Q157.978 12.1875 158.854 11.502Q159.73 10.8101 160.891 10.8101Q161.539 10.8101 162.161 10.9751L162.161 14.9043Q161.837 14.79 161.31 14.7266Q160.79 14.6631 160.383 14.6631Q159.177 14.6631 158.371 15.4438Q157.571 16.2246 157.571 17.4878L157.571 25.1875L153.052 25.1875ZM169.897 25.4541Q166.552 25.4541 164.635 23.5054Q162.724 21.5566 162.724 18.1543Q162.724 15.9517 163.587 14.3076Q164.457 12.6572 166.037 11.7432Q167.618 10.8228 169.757 10.8228Q171.769 10.8228 173.318 11.6606Q174.873 12.4922 175.749 14.1108Q176.625 15.7231 176.625 18.0591L176.625 19.189L167.174 19.189L167.174 19.3032Q167.174 20.6108 167.923 21.4043Q168.678 22.1978 169.979 22.1978Q170.868 22.1978 171.522 21.8232Q172.176 21.4487 172.436 20.7441L176.581 20.8647Q176.194 22.9531 174.435 24.2036Q172.683 25.4541 169.897 25.4541ZM167.174 16.561L172.423 16.561Q172.417 15.4756 171.693 14.7773Q170.97 14.0791 169.852 14.0791Q168.722 14.0791 167.967 14.79Q167.218 15.501 167.174 16.561Z" />
      </g>
    </g>
    <path d="M298.2 18.6875L270.183 18.6875Q269.92 18.6875 269.659 18.7219Q269.399 18.7563 269.145 18.8246Q268.891 18.8928 268.648 18.9937Q268.406 19.0946 268.178 19.2264Q267.951 19.3582 267.743 19.5186Q267.534 19.679 267.349 19.8653Q267.164 20.0516 267.004 20.2606Q266.845 20.4696 266.714 20.6977L258.774 34.5534Q258.644 34.7799 258.545 35.0212Q258.445 35.2626 258.378 35.5148Q258.311 35.767 258.278 36.0258Q258.244 36.2845 258.244 36.5455Q258.245 36.8065 258.279 37.0652Q258.313 37.3239 258.381 37.5759Q258.448 37.828 258.548 38.0692Q258.648 38.3103 258.778 38.5365L266.62 52.1546L270.546 45.2342L266.152 37.5142Q266.088 37.401 266.038 37.2804Q265.989 37.1599 265.956 37.0339Q265.923 36.908 265.906 36.7789Q265.89 36.6497 265.89 36.5195Q265.891 36.3892 265.908 36.2602Q265.925 36.1311 265.959 36.0054Q265.993 35.8797 266.043 35.7594Q266.093 35.6391 266.158 35.5263L271.33 26.5625Q271.396 26.449 271.475 26.345Q271.555 26.241 271.648 26.1483Q271.74 26.0556 271.844 25.9758Q271.948 25.896 272.062 25.8305Q272.175 25.7649 272.296 25.7148Q272.417 25.6646 272.544 25.6307Q272.671 25.5967 272.801 25.5796Q272.931 25.5625 273.062 25.5625L276.834 25.5625L272.164 35.0548L277.618 35.0482L268.428 53.4204L285.899 31.5852L280.554 31.5805L284.103 25.5625L294.267 25.5625L298.2 18.6875ZM286.133 54.3125L270.757 54.3125L274.69 47.4375L283.255 47.4375Q283.385 47.4375 283.513 47.4208Q283.642 47.4041 283.767 47.3709Q283.892 47.3378 284.012 47.2888Q284.132 47.2398 284.244 47.1757Q284.357 47.1116 284.46 47.0335Q284.564 46.9555 284.656 46.8647Q284.748 46.774 284.828 46.6721Q284.908 46.5702 284.974 46.4588L290.248 37.5741Q290.315 37.4604 290.367 37.3387Q290.419 37.2171 290.455 37.0897Q290.49 36.9623 290.508 36.8314Q290.527 36.7004 290.528 36.5682Q290.529 36.4359 290.512 36.3047Q290.496 36.1735 290.462 36.0456Q290.429 35.9177 290.378 35.7954Q290.328 35.673 290.262 35.5583L286.48 28.971L294.415 28.9571L297.622 34.4758Q297.755 34.7035 297.856 34.9466Q297.957 35.1898 298.026 35.4441Q298.094 35.6984 298.129 35.9596Q298.163 36.2207 298.164 36.4841Q298.164 36.7475 298.129 37.0086Q298.095 37.2698 298.026 37.5241Q297.958 37.7785 297.856 38.0216Q297.755 38.2648 297.623 38.4926L289.59 52.3224Q289.459 52.5485 289.299 52.7555Q289.14 52.9625 288.955 53.147Q288.77 53.3314 288.562 53.4902Q288.354 53.649 288.128 53.7794Q287.901 53.9098 287.66 54.0096Q287.418 54.1094 287.165 54.1769Q286.913 54.2444 286.654 54.2785Q286.395 54.3125 286.133 54.3125Z" id="Rectangle-Union" fill="#FFFFFF" fill-rule="evenodd" stroke="none" clip-path="url(#clip_1)" />
    <path d="M230.4 0L230.4 0L230.4 73L6 73C2.68584 73 0 70.3142 0 67L0 6C0 2.68584 2.68584 0 6 0L230.4 0Z" id="Rectangle" fill="#59ADFF" stroke="none" clip-path="url(#clip_1)" />
    <g id="Download-it-on" transform="translate(21.700073 14.5)" clip-path="url(#clip_1)">
      <g transform="translate(0, 6.278409)" id="Download-it-on" fill="#FFFFFF">
        <path d="M8.271 25.1875L1.86621 25.1875L1.86621 6.27783L8.4043 6.27783Q11.2163 6.27783 13.2412 7.40771Q15.2725 8.5376 16.3579 10.6577Q17.4497 12.7715 17.4497 15.7168Q17.4497 18.6685 16.3516 20.7949Q15.2598 22.915 13.2031 24.0513Q11.1528 25.1875 8.271 25.1875ZM5.2876 22.2231L8.10596 22.2231Q14.0537 22.2231 14.0537 15.7168Q14.0537 9.24219 8.20752 9.24219L5.2876 9.24219L5.2876 22.2231ZM26.7381 25.4668Q24.6624 25.4668 23.1389 24.5527Q21.6155 23.6387 20.7776 21.9883Q19.9461 20.3379 19.9461 18.1543Q19.9461 15.9517 20.7776 14.3076Q21.6155 12.6572 23.1389 11.7432Q24.6624 10.8228 26.7381 10.8228Q28.8137 10.8228 30.3435 11.7432Q31.8733 12.6572 32.7049 14.3076Q33.5364 15.9517 33.5364 18.1543Q33.5364 20.3379 32.7049 21.9883Q31.8733 23.6387 30.3435 24.5527Q28.8137 25.4668 26.7381 25.4668ZM26.7571 22.7881Q27.8933 22.7881 28.6424 22.1724Q29.3977 21.5503 29.7722 20.4966Q30.1467 19.4365 30.1467 18.1416Q30.1467 16.8403 29.7722 15.7866Q29.3977 14.7266 28.6424 14.0981Q27.8933 13.4697 26.7571 13.4697Q25.6145 13.4697 24.8528 14.0981Q24.0911 14.7266 23.7102 15.7866Q23.3294 16.8403 23.3294 18.1416Q23.3294 19.4365 23.7102 20.4966Q24.0911 21.5503 24.8528 22.1724Q25.6145 22.7881 26.7571 22.7881ZM38.9007 25.1875L34.889 11.0068L38.2977 11.0068L40.7923 20.979L40.9193 20.979L43.4711 11.0068L46.8417 11.0068L49.3871 20.9219L49.5267 20.9219L51.9833 11.0068L55.3983 11.0068L51.3802 25.1875L47.9017 25.1875L45.2421 15.6025L45.0453 15.6025L42.3856 25.1875L38.9007 25.1875ZM61.0846 16.8784L61.0846 25.1875L57.7458 25.1875L57.7458 11.0068L60.9386 11.0068L60.9386 13.4126L61.1037 13.4126Q61.5925 12.2319 62.6652 11.5273Q63.7443 10.8228 65.3312 10.8228Q67.5275 10.8228 68.8605 12.2192Q70.1999 13.6094 70.1872 16.1548L70.1872 25.1875L66.8483 25.1875L66.8483 16.6753Q66.8483 15.2534 66.112 14.4536Q65.3757 13.6475 64.0871 13.6475Q62.7668 13.6475 61.9225 14.4917Q61.0846 15.3359 61.0846 16.8784ZM76.9376 6.27783L76.9376 25.1875L73.5988 25.1875L73.5988 6.27783L76.9376 6.27783ZM86.5584 25.4668Q84.4827 25.4668 82.9592 24.5527Q81.4358 23.6387 80.5979 21.9883Q79.7664 20.3379 79.7664 18.1543Q79.7664 15.9517 80.5979 14.3076Q81.4358 12.6572 82.9592 11.7432Q84.4827 10.8228 86.5584 10.8228Q88.634 10.8228 90.1638 11.7432Q91.6936 12.6572 92.5252 14.3076Q93.3567 15.9517 93.3567 18.1543Q93.3567 20.3379 92.5252 21.9883Q91.6936 23.6387 90.1638 24.5527Q88.634 25.4668 86.5584 25.4668ZM86.5774 22.7881Q87.7136 22.7881 88.4627 22.1724Q89.218 21.5503 89.5925 20.4966Q89.9671 19.4365 89.9671 18.1416Q89.9671 16.8403 89.5925 15.7866Q89.218 14.7266 88.4627 14.0981Q87.7136 13.4697 86.5774 13.4697Q85.4348 13.4697 84.6731 14.0981Q83.9114 14.7266 83.5305 15.7866Q83.1497 16.8403 83.1497 18.1416Q83.1497 19.4365 83.5305 20.4966Q83.9114 21.5503 84.6731 22.1724Q85.4348 22.7881 86.5774 22.7881ZM100.258 25.4731Q98.2265 25.4731 96.8681 24.3877Q95.5161 23.2959 95.5161 21.2075Q95.5161 19.6079 96.2841 18.7319Q97.0585 17.8496 98.29 17.4497Q99.5214 17.0435 100.899 16.8975Q102.771 16.6943 103.59 16.5229Q104.409 16.3452 104.409 15.6216L104.409 15.5645Q104.409 14.5234 103.787 13.9521Q103.171 13.3809 102.003 13.3809Q100.778 13.3809 100.061 13.9141Q99.3437 14.4473 99.0961 15.1772L95.9794 14.7329Q96.5317 12.7969 98.1376 11.813Q99.7499 10.8228 101.984 10.8228Q103 10.8228 104.016 11.064Q105.031 11.2988 105.875 11.8574Q106.726 12.4097 107.234 13.3555Q107.748 14.2949 107.748 15.6978L107.748 25.1875L104.536 25.1875L104.536 23.2388L104.422 23.2388Q103.971 24.1338 102.949 24.8066Q101.934 25.4731 100.258 25.4731ZM101.127 23.0166Q102.644 23.0166 103.527 22.1533Q104.415 21.2837 104.415 20.103L104.415 18.4272Q104.206 18.605 103.635 18.7383Q103.07 18.8716 102.429 18.9668Q101.794 19.0557 101.35 19.1191Q100.232 19.2778 99.4833 19.7349Q98.7343 20.1919 98.7343 21.1504Q98.7343 22.0771 99.4072 22.5469Q100.086 23.0166 101.127 23.0166ZM116.384 25.4351Q114.708 25.4351 113.388 24.5781Q112.067 23.7212 111.299 22.0898Q110.537 20.4521 110.537 18.1162Q110.537 15.7485 111.318 14.1235Q112.099 12.4985 113.426 11.6606Q114.759 10.8228 116.39 10.8228Q117.647 10.8228 118.447 11.2417Q119.246 11.6606 119.716 12.251Q120.192 12.835 120.446 13.3491L120.579 13.3491L120.579 6.27783L123.931 6.27783L123.931 25.1875L120.649 25.1875L120.649 22.9531L120.446 22.9531Q120.186 23.4673 119.697 24.0449Q119.208 24.6226 118.402 25.0288Q117.602 25.4351 116.384 25.4351ZM117.317 22.6929Q118.91 22.6929 119.78 21.4233Q120.649 20.1538 120.649 18.0972Q120.649 16.0278 119.786 14.7964Q118.929 13.5649 117.317 13.5649Q115.641 13.5649 114.79 14.8408Q113.946 16.1103 113.946 18.0972Q113.946 20.0903 114.803 21.3916Q115.66 22.6929 117.317 22.6929ZM133.964 25.1875L133.964 11.0068L137.303 11.0068L137.303 25.1875L133.964 25.1875ZM135.64 8.99463Q134.84 8.99463 134.269 8.46142Q133.704 7.92822 133.704 7.18554Q133.704 6.42383 134.269 5.89697Q134.84 5.36377 135.64 5.36377Q136.433 5.36377 136.998 5.89697Q137.569 6.42383 137.569 7.18554Q137.569 7.92822 136.998 8.46142Q136.433 8.99463 135.64 8.99463ZM147.818 11.0068L147.818 13.5903L145.019 13.5903L145.019 20.9219Q145.019 21.9312 145.463 22.2485Q145.908 22.5659 146.536 22.5659Q146.847 22.5659 147.108 22.5215Q147.374 22.4707 147.514 22.439L148.079 25.0478Q147.812 25.1431 147.317 25.251Q146.822 25.3652 146.111 25.3843Q144.226 25.4351 142.943 24.4575Q141.668 23.48 141.68 21.4741L141.68 13.5903L139.668 13.5903L139.668 11.0068L141.68 11.0068L141.68 7.61084L145.019 7.61084L145.019 11.0068L147.818 11.0068ZM163.257 25.4668Q161.181 25.4668 159.657 24.5527Q158.134 23.6387 157.296 21.9883Q156.465 20.3379 156.465 18.1543Q156.465 15.9517 157.296 14.3076Q158.134 12.6572 159.657 11.7432Q161.181 10.8228 163.257 10.8228Q165.332 10.8228 166.862 11.7432Q168.392 12.6572 169.223 14.3076Q170.055 15.9517 170.055 18.1543Q170.055 20.3379 169.223 21.9883Q168.392 23.6387 166.862 24.5527Q165.332 25.4668 163.257 25.4668ZM163.276 22.7881Q164.412 22.7881 165.161 22.1724Q165.916 21.5503 166.291 20.4966Q166.665 19.4365 166.665 18.1416Q166.665 16.8403 166.291 15.7866Q165.916 14.7266 165.161 14.0981Q164.412 13.4697 163.276 13.4697Q162.133 13.4697 161.371 14.0981Q160.61 14.7266 160.229 15.7866Q159.848 16.8403 159.848 18.1416Q159.848 19.4365 160.229 20.4966Q160.61 21.5503 161.371 22.1724Q162.133 22.7881 163.276 22.7881ZM176.22 16.8784L176.22 25.1875L172.881 25.1875L172.881 11.0068L176.074 11.0068L176.074 13.4126L176.239 13.4126Q176.727 12.2319 177.8 11.5273Q178.879 10.8228 180.466 10.8228Q182.662 10.8228 183.995 12.2192Q185.335 13.6094 185.322 16.1548L185.322 25.1875L181.983 25.1875L181.983 16.6753Q181.983 15.2534 181.247 14.4536Q180.511 13.6475 179.222 13.6475Q177.902 13.6475 177.057 14.4917Q176.22 15.3359 176.22 16.8784Z" />
      </g>
    </g>
  </g>
</svg>